<svg width="27" height="20" viewBox="0 0 27 20" fill="none" xmlns="http://www.w3.org/2000/svg">
<path d="M0.875 0V1.875C0.875 7.0625 3.6375 11.6 7.75 14.125V20H26.5V17.5C26.5 14.175 19.8375 12.5 16.5 12.5H16.1875C10.25 12.5 5.25 7.5 5.25 1.875V0M16.5 0C15.1739 0 13.9021 0.526784 12.9645 1.46447C12.0268 2.40215 11.5 3.67392 11.5 5C11.5 6.32608 12.0268 7.59785 12.9645 8.53553C13.9021 9.47322 15.1739 10 16.5 10C17.8261 10 19.0979 9.47322 20.0355 8.53553C20.9732 7.59785 21.5 6.32608 21.5 5C21.5 3.67392 20.9732 2.40215 20.0355 1.46447C19.0979 0.526784 17.8261 0 16.5 0Z" fill="#C0282E"/>
</svg>
