<svg width="6" height="8" viewBox="0 0 6 8" fill="none" xmlns="http://www.w3.org/2000/svg">
<path d="M0.499919 6.91667C0.499919 7.375 0.874919 7.75 1.33325 7.75H4.66659C5.12492 7.75 5.49992 7.375 5.49992 6.91667V2.75C5.49992 2.29167 5.12492 1.91667 4.66659 1.91667H1.33325C0.874919 1.91667 0.499919 2.29167 0.499919 2.75V6.91667ZM5.49992 0.666667H4.45825L4.16242 0.370833C4.08742 0.295833 3.97909 0.25 3.87075 0.25H2.12909C2.02075 0.25 1.91242 0.295833 1.83742 0.370833L1.54159 0.666667H0.499919C0.270752 0.666667 0.083252 0.854167 0.083252 1.08333C0.083252 1.3125 0.270752 1.5 0.499919 1.5H5.49992C5.72909 1.5 5.91659 1.3125 5.91659 1.08333C5.91659 0.854167 5.72909 0.666667 5.49992 0.666667Z" fill="#C0282E"/>
</svg>
