<svg width="8" height="8" viewBox="0 0 8 8" fill="none" xmlns="http://www.w3.org/2000/svg">
<path d="M0.666667 7.75C0.548611 7.75 0.449722 7.71 0.37 7.63C0.290278 7.55 0.250278 7.45111 0.25 7.33333V6.32292C0.25 6.21181 0.270833 6.10583 0.3125 6.005C0.354167 5.90417 0.413194 5.81569 0.489583 5.73958L5.75 0.489583C5.83333 0.413194 5.92542 0.354167 6.02625 0.3125C6.12708 0.270833 6.23292 0.25 6.34375 0.25C6.45458 0.25 6.56222 0.270833 6.66667 0.3125C6.77111 0.354167 6.86139 0.416667 6.9375 0.5L7.51042 1.08333C7.59375 1.15972 7.65444 1.25 7.6925 1.35417C7.73056 1.45833 7.74972 1.5625 7.75 1.66667C7.75 1.77778 7.73083 1.88375 7.6925 1.98458C7.65417 2.08542 7.59347 2.17736 7.51042 2.26042L2.26042 7.51042C2.18403 7.5868 2.09542 7.64583 1.99458 7.6875C1.89375 7.72917 1.78792 7.75 1.67708 7.75H0.666667ZM6.33333 2.25L6.91667 1.66667L6.33333 1.08333L5.75 1.66667L6.33333 2.25Z" fill="#4EC028"/>
</svg>
