<svg width="20" height="22" viewBox="0 0 20 22" fill="none" xmlns="http://www.w3.org/2000/svg">
<path d="M2 22C1.45 22 0.979335 21.8043 0.588002 21.413C0.196668 21.0217 0.000668362 20.5507 1.69491e-06 20C-0.000664972 19.4493 0.195335 18.9787 0.588002 18.588C0.980668 18.1973 1.45133 18.0013 2 18H18C18.55 18 19.021 18.196 19.413 18.588C19.805 18.98 20.0007 19.4507 20 20C19.9993 20.5493 19.8037 21.0203 19.413 21.413C19.0223 21.8057 18.5513 22.0013 18 22H2ZM4 14H5.4L13.2 6.225L12.475 5.5L11.775 4.8L4 12.6V14ZM2 15V12.175C2 12.0417 2.025 11.9127 2.075 11.788C2.125 11.6633 2.2 11.5507 2.3 11.45L13.2 0.575C13.3833 0.391667 13.596 0.25 13.838 0.15C14.08 0.0500001 14.334 0 14.6 0C14.866 0 15.1243 0.0500001 15.375 0.15C15.6257 0.25 15.8507 0.4 16.05 0.6L17.425 2C17.625 2.18333 17.7707 2.4 17.862 2.65C17.9533 2.9 17.9993 3.15833 18 3.425C18 3.675 17.954 3.921 17.862 4.163C17.77 4.405 17.6243 4.62567 17.425 4.825L6.55 15.7C6.45 15.8 6.33767 15.875 6.213 15.925C6.08834 15.975 5.959 16 5.825 16H3C2.71667 16 2.47934 15.904 2.288 15.712C2.09667 15.52 2.00067 15.2827 2 15ZM13.2 6.225L12.475 5.5L11.775 4.8L13.2 6.225Z" fill="#5E5E5E"/>
</svg>
