<svg width="14" height="21" viewBox="0 0 14 21" fill="none" xmlns="http://www.w3.org/2000/svg">
<path d="M0.197899 1.8C0.799899 0.5 2.8669 0.5 6.9999 0.5C11.1329 0.5 13.1999 0.5 13.8019 1.8C13.8539 1.91067 13.8972 2.026 13.9319 2.146C14.3419 3.533 12.8799 5.141 9.9579 8.356L7.9999 10.5L9.9579 12.643C12.8799 15.859 14.3409 17.467 13.9319 18.853C13.8973 18.9721 13.8538 19.0884 13.8019 19.201C13.1999 20.5 11.1329 20.5 6.9999 20.5C2.8669 20.5 0.799899 20.5 0.197899 19.2C0.146087 19.088 0.102635 18.9724 0.0678988 18.854C-0.342101 17.467 1.1199 15.859 4.0419 12.644L5.9999 10.5L4.0419 8.357C1.1199 5.14 -0.340101 3.533 0.0678988 2.147C0.102565 2.027 0.145899 1.912 0.197899 1.8Z" fill="black"/>
</svg>
