<svg width="18" height="11" viewBox="0 0 18 11" fill="none" xmlns="http://www.w3.org/2000/svg">
<path d="M5 2.5C4.71667 2.5 4.47934 2.404 4.288 2.212C4.09667 2.02 4.00067 1.78267 4 1.5C3.99934 1.21733 4.09534 0.98 4.288 0.788C4.48067 0.596 4.718 0.5 5 0.5H17C17.2833 0.5 17.521 0.596 17.713 0.788C17.905 0.98 18.0007 1.21733 18 1.5C17.9993 1.78267 17.9033 2.02033 17.712 2.213C17.5207 2.40567 17.2833 2.50133 17 2.5H5ZM5 6.5C4.71667 6.5 4.47934 6.404 4.288 6.212C4.09667 6.02 4.00067 5.78267 4 5.5C3.99934 5.21733 4.09534 4.98 4.288 4.788C4.48067 4.596 4.718 4.5 5 4.5H17C17.2833 4.5 17.521 4.596 17.713 4.788C17.905 4.98 18.0007 5.21733 18 5.5C17.9993 5.78267 17.9033 6.02033 17.712 6.213C17.5207 6.40567 17.2833 6.50133 17 6.5H5ZM5 10.5C4.71667 10.5 4.47934 10.404 4.288 10.212C4.09667 10.02 4.00067 9.78267 4 9.5C3.99934 9.21733 4.09534 8.98 4.288 8.788C4.48067 8.596 4.718 8.5 5 8.5H17C17.2833 8.5 17.521 8.596 17.713 8.788C17.905 8.98 18.0007 9.21733 18 9.5C17.9993 9.78267 17.9033 10.0203 17.712 10.213C17.5207 10.4057 17.2833 10.5013 17 10.5H5ZM1 2.5C0.71667 2.5 0.479337 2.404 0.288004 2.212C0.0966702 2.02 0.000670115 1.78267 3.44827e-06 1.5C-0.000663218 1.21733 0.0953369 0.98 0.288004 0.788C0.48067 0.596 0.718003 0.5 1 0.5C1.282 0.5 1.51967 0.596 1.713 0.788C1.90634 0.98 2.002 1.21733 2 1.5C1.998 1.78267 1.902 2.02033 1.712 2.213C1.522 2.40567 1.28467 2.50133 1 2.5ZM1 6.5C0.71667 6.5 0.479337 6.404 0.288004 6.212C0.0966702 6.02 0.000670115 5.78267 3.44827e-06 5.5C-0.000663218 5.21733 0.0953369 4.98 0.288004 4.788C0.48067 4.596 0.718003 4.5 1 4.5C1.282 4.5 1.51967 4.596 1.713 4.788C1.90634 4.98 2.002 5.21733 2 5.5C1.998 5.78267 1.902 6.02033 1.712 6.213C1.522 6.40567 1.28467 6.50133 1 6.5ZM1 10.5C0.71667 10.5 0.479337 10.404 0.288004 10.212C0.0966702 10.02 0.000670115 9.78267 3.44827e-06 9.5C-0.000663218 9.21733 0.0953369 8.98 0.288004 8.788C0.48067 8.596 0.718003 8.5 1 8.5C1.282 8.5 1.51967 8.596 1.713 8.788C1.90634 8.98 2.002 9.21733 2 9.5C1.998 9.78267 1.902 10.0203 1.712 10.213C1.522 10.4057 1.28467 10.5013 1 10.5Z" fill="black"/>
</svg>
